# xmcd CD database file
#
# Track frame offsets:
#	150
#	20494
#	39821
#	55016
#	72183
#	95822
#	117234
#	133339
#	148271
#	165818
#	190387
#	208729
#	228191
#
# Disc length: 3255 seconds
#
# Revision: 8
# Processed by: cddbd v1.4PL0 Copyright (c) Steve Scherf et al.
# Submitted via: CDex 1.50
#
DISCID=b50cb50d
DTITLE=Luz Casal - Piensa en mi
DYEAR=1998
DGENRE=Country
TTITLE0=Piensa en mi
TTITLE1=No me importa nada
TTITLE2=Un año de amor
TTITLE3=Lo eres todo
TTITLE4=Besare el suelo
TTITLE5=Es por ti
TTITLE6=Entre mis recuerdos
TTITLE7=Eres tu
TTITLE8=Es mejor que te vayas
TTITLE9=Negra sombra
TTITLE10=Un dia marron
TTITLE11=Tu ne l'emporteras pas
TTITLE12=Entre mes souvenirs
EXTD=YEAR: 1998
EXTT0=
EXTT1=
EXTT2=
EXTT3=
EXTT4=
EXTT5=
EXTT6=
EXTT7=
EXTT8=
EXTT9=
EXTT10=
EXTT11=
EXTT12=
PLAYORDER=
